<?xml version="1.0" encoding="utf-8"?>
<!-- Generator: Adobe Illustrator 22.1.0, SVG Export Plug-In . SVG Version: 6.00 Build 0)  -->
<svg version="1.1" id="Ebene_1" xmlns="http://www.w3.org/2000/svg" xmlns:xlink="http://www.w3.org/1999/xlink" x="0px" y="0px"
	 viewBox="0 0 41.9 41.9" style="enable-background:new 0 0 41.9 41.9;" xml:space="preserve">
<style type="text/css">
	.st0{fill:#FFFFFF;}
</style>
<g>
	<path class="st0" d="M20.9,41.9C9.4,41.9,0,32.5,0,20.9S9.4,0,20.9,0s20.9,9.4,20.9,20.9S32.5,41.9,20.9,41.9z M20.9,1
		C9.9,1,1,9.9,1,20.9c0,11,8.9,19.9,19.9,19.9c11,0,19.9-8.9,19.9-19.9C40.9,9.9,31.9,1,20.9,1z"/>
</g>
<polygon class="st0" points="20.9,28.5 10.3,16.1 11,15.4 20.9,26.9 30.9,15.4 31.6,16.1 "/>
</svg>
