<?xml version="1.0" encoding="utf-8"?>
<!-- Generator: Adobe Illustrator 22.0.1, SVG Export Plug-In . SVG Version: 6.00 Build 0)  -->
<svg version="1.1" id="Ebene_1" xmlns="http://www.w3.org/2000/svg" xmlns:xlink="http://www.w3.org/1999/xlink" x="0px" y="0px"
	 viewBox="0 0 221.3 43.6" style="enable-background:new 0 0 221.3 43.6;" xml:space="preserve">
<style type="text/css">
	.st0{fill:#0B2558;}
</style>
<g>
	<path class="st0" d="M35.3,1.2c-2.9,0-5.4,2.4-5.4,6.6c0,4,1.8,6.8,5.4,6.8c2.9,0,5.5-2.4,5.5-6.6C40.8,3.7,38.7,1.2,35.3,1.2
		 M35.1,15.9c-4.6,0-6.8-3.1-6.8-7.8c0-5.2,3.3-8.1,7.2-8.1c4.3,0,6.8,2.9,6.8,7.8C42.3,13,39.1,15.9,35.1,15.9"/>
</g>
<polygon class="st0" points="49.1,5 49.1,15.7 47.6,15.7 47.6,5 43.9,5 43.9,3.8 52.8,3.8 52.8,5 "/>
<polygon class="st0" points="58.9,5 58.9,15.7 57.4,15.7 57.4,5 53.7,5 53.7,3.8 62.6,3.8 62.6,5 "/>
<path class="st0" d="M69.5,4.8c-2.2,0-4.1,1.7-4.1,4.9c0,2.6,1,5,4.1,5c2.4,0,4.2-1.7,4.2-4.8C73.6,6.6,72,4.8,69.5,4.8 M69.3,15.9
	c-3.9,0-5.5-2.6-5.5-6.1c0-4,2.7-6.2,5.9-6.2c3.6,0,5.6,2.2,5.6,6.1C75.2,13.7,72.6,15.9,69.3,15.9"/>
<path class="st0" d="M86.5,3.7c-0.9,0-1.6,0.6-1.6,1.6c0,0.5,0.6,1.4,1.5,2.4c0.9-0.7,1.7-1.5,1.7-2.6C88.1,4.3,87.6,3.7,86.5,3.7
	 M86,9.3c-1,0.8-2,1.7-2,3s1.1,2.4,2.8,2.4c1.5,0,2.8-0.5,3.8-1.4C89,12.1,87.3,10.7,86,9.3 M92.6,13.2c0.9,0.7,1.7,1.3,2.5,1.8
	l-0.9,1.1c-1-0.7-1.9-1.4-2.7-2c-1.3,1.1-3,1.8-5,1.8c-2.6,0-4-1.5-4-3.5c0-1.8,1.3-2.9,2.7-4c-1.1-1.2-1.8-2.3-1.8-3
	c0-1.7,1.3-2.9,3.2-2.9c1.9,0,2.9,1.1,2.9,2.4c0,1.6-1.1,2.6-2.4,3.5c1.2,1.2,2.8,2.7,4.4,3.9c0.9-1.2,1.4-2.9,1.3-4.6h1.5
	C94.4,9.7,93.8,11.7,92.6,13.2"/>
<path class="st0" d="M109.2,15.9c-4.7,0-7-2.9-7-7.6c0-4.6,2.2-8.2,7.5-8.2c1.2,0,2.5,0.2,3.7,0.5L113.2,2c-1.3-0.4-2.6-0.6-3.8-0.6
	c-4,0-5.6,3.1-5.6,6.8c0,4.2,1.8,6.6,5.8,6.6c1.3,0,2.8-0.4,3.8-0.9l0.2,1.3C112.4,15.6,110.9,15.9,109.2,15.9"/>
<path class="st0" d="M121.4,4.8c-2.2,0-4.1,1.7-4.1,4.9c0,2.6,1,5,4.1,5c2.4,0,4.2-1.7,4.2-4.8C125.6,6.6,124,4.8,121.4,4.8
	 M121.2,15.9c-3.9,0-5.5-2.6-5.5-6.1c0-4,2.7-6.2,5.9-6.2c3.6,0,5.6,2.2,5.6,6.1C127.2,13.7,124.6,15.9,121.2,15.9"/>
<path class="st0" d="M143.2,15.7l-1-7.3c-0.2-1.5-0.3-2.4-0.4-3l0,0c-0.1,0.5-0.3,1.2-0.6,2l-2.9,8.4h-1.6L134,8
	c-0.3-0.9-0.7-1.8-0.8-2.5l0,0c0,0.9-0.2,1.9-0.3,3.1l-0.9,7.3h-1.5l1.8-12h1.8l2.8,8.1c0.3,0.9,0.6,1.6,0.7,2.3l0,0
	c0.2-0.8,0.3-1.3,0.6-2.2l2.9-8.2h2l1.7,12h-1.6V15.7z"/>
<path class="st0" d="M152.2,4.9c-0.7,0-1.1,0-1.5,0V10c0.4,0.1,0.9,0.1,1.3,0.1c2.1,0,3.3-0.9,3.3-2.7
	C155.2,5.9,154.2,4.9,152.2,4.9 M151.9,11.4c-0.4,0-0.8,0-1.2-0.1v4.4h-1.5v-12c0.9,0,2,0,3.2,0c2.7,0,4.4,1.4,4.4,3.5
	C156.8,9.7,154.9,11.4,151.9,11.4"/>
<path class="st0" d="M163.8,7.4c-0.3-0.7-0.6-1.5-0.7-2.1l0,0c-0.2,0.6-0.4,1.4-0.7,2.1l-1.7,4.4h4.9L163.8,7.4z M167,15.7l-1.1-2.8
	h-5.8l-1.1,2.8h-1.5l4.8-12h1.6l4.7,12H167z"/>
<path class="st0" d="M179.7,15.7l-5.2-7.9c-0.5-0.8-1-1.7-1.5-2.5l0,0c0,0.9,0.1,1.8,0.1,3.4v7h-1.5v-12h1.9l5.1,7.8
	c0.5,0.8,1.1,1.7,1.5,2.5l0,0c-0.1-0.9-0.1-2.4-0.1-4.5V3.7h1.5v12H179.7z"/>
<path class="st0" d="M189.7,11.5v4.3h-1.5v-4.3l-4.1-7.7h1.6L188,8c0.4,0.7,0.7,1.4,1,2.2l0,0c0.3-0.8,0.8-1.6,1.2-2.4l2.2-4.1h1.5
	L189.7,11.5z"/>
</svg>
