<?xml version="1.0" encoding="utf-8"?>
<!-- Generator: Adobe Illustrator 22.0.1, SVG Export Plug-In . SVG Version: 6.00 Build 0)  -->
<svg version="1.1" id="Ebene_1" xmlns="http://www.w3.org/2000/svg" xmlns:xlink="http://www.w3.org/1999/xlink" x="0px" y="0px"
	 viewBox="0 0 221.3 43.6" style="enable-background:new 0 0 221.3 43.6;" xml:space="preserve">
<style type="text/css">
	.st0{fill:#0B2558;}
</style>
<g>
	<path class="st0" d="M62.3,1.2c-2.9,0-5.4,2.4-5.4,6.6c0,4,1.8,6.8,5.4,6.8c2.9,0,5.5-2.4,5.5-6.6C67.8,3.7,65.7,1.2,62.3,1.2
		 M62.1,15.9c-4.6,0-6.8-3.1-6.8-7.8c0-5.2,3.3-8.1,7.2-8.1c4.3,0,6.8,2.9,6.8,7.8C69.3,13,66.1,15.9,62.1,15.9"/>
</g>
<polygon class="st0" points="76.1,5 76.1,15.7 74.6,15.7 74.6,5 70.9,5 70.9,3.8 79.8,3.8 79.8,5 "/>
<polygon class="st0" points="85.9,5 85.9,15.7 84.4,15.7 84.4,5 80.7,5 80.7,3.8 89.6,3.8 89.6,5 "/>
<path class="st0" d="M96.5,4.8c-2.2,0-4.1,1.7-4.1,4.9c0,2.6,1,5,4.1,5c2.4,0,4.2-1.7,4.2-4.8C100.6,6.6,99,4.8,96.5,4.8 M96.3,15.9
	c-3.9,0-5.5-2.6-5.5-6.1c0-4,2.7-6.2,5.9-6.2c3.6,0,5.6,2.2,5.6,6.1C102.2,13.7,99.6,15.9,96.3,15.9"/>
<path class="st0" d="M113.5,3.7c-0.9,0-1.6,0.6-1.6,1.6c0,0.5,0.6,1.4,1.5,2.4c0.9-0.7,1.7-1.5,1.7-2.6
	C115.1,4.3,114.6,3.7,113.5,3.7 M113,9.3c-1,0.8-2,1.7-2,3s1.1,2.4,2.8,2.4c1.5,0,2.8-0.5,3.8-1.4C116,12.1,114.3,10.7,113,9.3
	 M119.6,13.2c0.9,0.7,1.7,1.3,2.5,1.8l-0.9,1.1c-1-0.7-1.9-1.4-2.7-2c-1.3,1.1-3,1.8-5,1.8c-2.6,0-4-1.5-4-3.5c0-1.8,1.3-2.9,2.7-4
	c-1.1-1.2-1.8-2.3-1.8-3c0-1.7,1.3-2.9,3.2-2.9c1.9,0,2.9,1.1,2.9,2.4c0,1.6-1.1,2.6-2.4,3.5c1.2,1.2,2.8,2.7,4.4,3.9
	c0.9-1.2,1.4-2.9,1.3-4.6h1.5C121.4,9.7,120.8,11.7,119.6,13.2"/>
<path class="st0" d="M136.2,15.9c-4.7,0-7-2.9-7-7.6c0-4.6,2.2-8.2,7.5-8.2c1.2,0,2.5,0.2,3.7,0.5L140.2,2c-1.3-0.4-2.6-0.6-3.8-0.6
	c-4,0-5.6,3.1-5.6,6.8c0,4.2,1.8,6.6,5.8,6.6c1.3,0,2.8-0.4,3.8-0.9l0.2,1.3C139.4,15.6,137.9,15.9,136.2,15.9"/>
<path class="st0" d="M148.4,4.8c-2.2,0-4.1,1.7-4.1,4.9c0,2.6,1,5,4.1,5c2.4,0,4.2-1.7,4.2-4.8C152.6,6.6,151,4.8,148.4,4.8
	 M148.2,15.9c-3.9,0-5.5-2.6-5.5-6.1c0-4,2.7-6.2,5.9-6.2c3.6,0,5.6,2.2,5.6,6.1C154.2,13.7,151.6,15.9,148.2,15.9"/>
<path class="st0" d="M170.2,15.7l-1-7.3c-0.2-1.5-0.3-2.4-0.4-3l0,0c-0.1,0.5-0.3,1.2-0.6,2l-2.9,8.4h-1.6L161,8
	c-0.3-0.9-0.7-1.8-0.8-2.5l0,0c0,0.9-0.2,1.9-0.3,3.1l-0.9,7.3h-1.5l1.8-12h1.8l2.8,8.1c0.3,0.9,0.6,1.6,0.7,2.3l0,0
	c0.2-0.8,0.3-1.3,0.6-2.2l2.9-8.2h2l1.7,12h-1.6V15.7z"/>
<path class="st0" d="M179.2,4.9c-0.7,0-1.1,0-1.5,0V10c0.4,0.1,0.9,0.1,1.3,0.1c2.1,0,3.3-0.9,3.3-2.7
	C182.2,5.9,181.2,4.9,179.2,4.9 M178.9,11.4c-0.4,0-0.8,0-1.2-0.1v4.4h-1.5v-12c0.9,0,2,0,3.2,0c2.7,0,4.4,1.4,4.4,3.5
	C183.8,9.7,181.9,11.4,178.9,11.4"/>
<path class="st0" d="M190.8,7.4c-0.3-0.7-0.6-1.5-0.7-2.1l0,0c-0.2,0.6-0.4,1.4-0.7,2.1l-1.7,4.4h4.9L190.8,7.4z M194,15.7l-1.1-2.8
	h-5.8l-1.1,2.8h-1.5l4.8-12h1.6l4.7,12H194z"/>
<path class="st0" d="M206.7,15.7l-5.2-7.9c-0.5-0.8-1-1.7-1.5-2.5l0,0c0,0.9,0.1,1.8,0.1,3.4v7h-1.5v-12h1.9l5.1,7.8
	c0.5,0.8,1.1,1.7,1.5,2.5l0,0c-0.1-0.9-0.1-2.4-0.1-4.5V3.7h1.5v12H206.7z"/>
<path class="st0" d="M216.7,11.5v4.3h-1.5v-4.3l-4.1-7.7h1.6L215,8c0.4,0.7,0.7,1.4,1,2.2l0,0c0.3-0.8,0.8-1.6,1.2-2.4l2.2-4.1h1.5
	L216.7,11.5z"/>
</svg>
